<svg width="800" height="800" viewBox="0 0 800 800" fill="none" xmlns="http://www.w3.org/2000/svg">
<path d="M21.5765 400L241.306 526.859V273.139L21.5765 400Z" fill="#FEE187"/>
<path d="M426.859 318.552H262.883V273.139C262.883 265.43 258.77 258.308 252.095 254.455C245.42 250.602 237.195 250.602 230.519 254.455L10.7875 381.312C4.1125 385.167 0 392.289 0 399.998C0 407.708 4.1125 414.83 10.7875 418.683L230.519 545.544C233.856 547.47 237.581 548.434 241.306 548.434C245.031 548.434 248.756 547.47 252.094 545.544C258.769 541.691 262.881 534.569 262.881 526.859V481.447H426.859C438.773 481.447 448.436 471.787 448.436 459.87V340.125C448.434 328.211 438.773 318.552 426.859 318.552ZM219.731 489.491L64.7281 400L219.731 310.508V340.127V459.872V489.491ZM405.283 438.297H262.883V361.703H405.283V438.297Z" fill="white"/>
<path d="M505.489 177.209V622.788C598.33 591.33 665.15 503.467 665.15 399.997C665.15 296.527 598.331 208.667 505.489 177.209Z" fill="#FEE187"/>
<path d="M505.492 644.364C501.039 644.364 496.633 642.986 492.917 640.323C487.267 636.272 483.914 629.742 483.914 622.789V177.211C483.914 170.258 487.267 163.728 492.917 159.677C498.566 155.627 505.827 154.545 512.413 156.777C616.675 192.106 686.727 289.848 686.727 400C686.727 510.152 616.673 607.894 512.413 643.225C510.155 643.987 507.816 644.364 505.492 644.364ZM527.066 209.653V590.344C597.825 554.295 643.575 481.2 643.575 399.997C643.575 318.794 597.825 245.703 527.066 209.653Z" fill="white"/>
<path d="M429.975 770.025C306.542 770.025 191.678 708.791 122.709 606.222C116.063 596.334 118.688 582.927 128.577 576.28C138.464 569.628 151.872 572.256 158.522 582.144C219.458 672.769 320.936 726.875 429.977 726.875C610.214 726.875 756.85 580.241 756.85 400.002C756.85 219.763 610.212 73.1266 429.975 73.1266C320.934 73.1266 219.458 127.233 158.52 217.858C151.87 227.745 138.461 230.372 128.575 223.722C118.688 217.072 116.061 203.667 122.708 193.78C191.677 91.2109 306.542 29.9766 429.973 29.9766C634.006 29.975 800 195.969 800 400C800 604.031 634.008 770.025 429.975 770.025Z" fill="white"/>
</svg>
