<svg width="800" height="742" viewBox="0 0 800 742" fill="none" xmlns="http://www.w3.org/2000/svg">
<path d="M426.859 371.001L207.128 244.139V497.86L426.859 371.001Z" fill="#FEE187"/>
<path d="M437.646 352.313L217.915 225.454C211.24 221.601 203.015 221.601 196.339 225.454C189.664 229.307 185.551 236.429 185.551 244.139V289.551H21.5765C9.65936 289.551 0 299.212 0 311.127V430.873C0 442.788 9.65936 452.449 21.5765 452.449H185.553V497.861C185.553 505.571 189.665 512.693 196.34 516.546C199.678 518.472 203.403 519.436 207.128 519.436C210.853 519.436 214.578 518.472 217.915 516.546L437.646 389.685C444.321 385.832 448.433 378.71 448.433 371.001C448.433 363.291 444.321 356.17 437.646 352.313ZM43.1515 409.298V332.704H185.551V409.298H43.1515ZM228.704 460.49V430.871V311.126V281.507L383.707 370.999L228.704 460.49Z" fill="white"/>
<path d="M505.488 148.211V593.788C598.328 562.33 665.149 474.468 665.149 370.998C665.149 267.527 598.33 179.668 505.488 148.211Z" fill="#FEE187"/>
<path d="M505.491 615.363C501.038 615.363 496.63 613.985 492.916 611.322C487.266 607.271 483.913 600.741 483.913 593.788V148.211C483.913 141.258 487.266 134.728 492.916 130.676C498.566 126.625 505.822 125.545 512.411 127.776C616.674 163.106 686.725 260.849 686.725 371.001C686.725 481.152 616.675 578.894 512.411 614.225C510.154 614.988 507.815 615.363 505.491 615.363ZM527.065 180.654V561.344C597.824 525.296 643.574 452.201 643.574 370.998C643.574 289.795 597.827 216.703 527.065 180.654Z" fill="white"/>
<path d="M429.974 741.025C306.542 741.025 191.676 679.791 122.709 577.222C116.059 567.335 118.686 553.927 128.576 547.28C138.464 540.629 151.87 543.258 158.518 553.144C219.454 643.769 320.932 697.875 429.974 697.875C610.214 697.875 756.847 551.241 756.847 371.002C756.847 190.764 610.213 44.1265 429.974 44.1265C320.934 44.1265 219.454 98.2326 158.518 188.857C151.872 198.745 138.465 201.371 128.576 194.722C118.689 188.072 116.062 174.667 122.712 164.779C191.679 62.2108 306.545 0.976562 429.977 0.976562C634.008 0.976562 800.002 166.97 800.002 371.001C800.002 575.032 634.007 741.025 429.974 741.025Z" fill="white"/>
</svg>
